<?xml version="1.0" encoding="UTF-8"?>
<svg width="283px" height="383px" viewBox="0 0 283 383" version="1.1" xmlns="http://www.w3.org/2000/svg" xmlns:xlink="http://www.w3.org/1999/xlink">
    <!-- Generator: Sketch 55.1 (78136) - https://sketchapp.com -->
    <title>Artboard</title>
    <desc>Created with Sketch.</desc>
    <g id="Artboard" stroke="none" stroke-width="1" fill="none" fill-rule="evenodd">
        <g id="BP_logo-01" transform="translate(-71.000000, -50.000000)">
            <path d="M289.49,96.82 C289.49,105.04 286.58,116.37 274.96,116.37 C260.96,116.37 260.96,100.63 260.96,97.37 C260.96,94.11 260.96,77.3698145 275.39,77.3698145 C288.49,77.31 289.49,91.82 289.49,96.82 Z M261.12,52.91 L251.7,52.91 L251.7,113.46 L251.49,122.46 L260.6,122.46 L260.81,114.85 C262.049967,116.897724 263.730706,118.64337 265.73,119.96 C269.063095,122.131773 272.972604,123.250269 276.95,123.17 C283.87,123.17 290.59,120.26 294.61,114.55 C297.11,111.24 299.41,105.92 299.41,96.2 C299.41,85.2 296,80.2 293.51,77.25 C288.9,72.03 282.57,70.83 277.51,70.83 C266.09,70.83 262.37,77.15 261.08,79.45 L261.12,52.91 Z" id="Shape" fill="#009900" fill-rule="nonzero"></path>
            <path d="M315.65,98.82 C315.65,94.31 315.65,78.37 330.65,78.37 C341.77,78.37 344.48,87.79 344.48,96.82 C344.48,100.43 343.98,107.65 340.37,112.56 C337.16,116.97 332.15,117.470096 329.75,117.470096 C316.56,117.51 315.65,104.98 315.65,98.82 Z M306.65,141.82 L315.97,141.82 L315.97,116.82 C318.67,121.23 324.09,124.34 331.41,124.34 C343.41,124.34 354.36,116.12 354.36,97.34 C354.36,78.56 344.03,71.34 333.2,71.34 C329.09,71.34 320.76,72.54 316.05,80.47 L315.84,72.15 L306.33,72.15 C306.53,76.96 306.63,78.15 306.63,80.37 L306.65,141.82 Z" id="Shape" fill="#009900" fill-rule="nonzero"></path>
            <path d="M231.89,176.58 C226.601285,164.399692 220.147963,152.75893 212.62,141.82 C205.082719,152.746103 198.628846,164.381161 193.35,176.56 C200.83853,184.479461 207.311673,193.300672 212.62,202.82 C217.928588,193.306947 224.401781,184.492386 231.89,176.58 Z" id="Path" fill="#009900"></path>
            <path d="M193.35,394.95 C198.63277,407.126906 205.086437,418.761591 212.62,429.69 C220.147527,418.75785 226.600861,407.123766 231.89,394.95 C224.412299,387.021512 217.940187,378.201706 212.62,368.69 C207.299813,378.201706 200.827701,387.021512 193.35,394.95 Z" id="Path" fill="#009900"></path>
            <path d="M193.35,176.58 C184.239576,166.938275 174.208554,158.210113 163.4,150.52 C160.062706,163.363972 157.986208,176.502849 157.2,189.75 C166.923257,194.647094 176.010781,200.715519 184.26,207.82 C185.993144,197.072336 189.046225,186.579679 193.35,176.58 Z" id="Path" fill="#009900"></path>
            <path d="M231.89,394.95 C241.000424,404.591725 251.031446,413.319887 261.84,421.01 C265.170071,408.177725 267.249775,395.053151 268.05,381.82 C258.323449,376.911209 249.232818,370.832878 240.98,363.72 C239.236075,374.462004 236.183359,384.95005 231.89,394.95 Z" id="Path" fill="#009900"></path>
            <path d="M157.2,189.75 C145.329808,183.820154 132.915756,179.048095 120.13,175.5 C121.370338,188.717301 123.909257,201.780337 127.71,214.5 C138.52868,215.761533 149.1495,218.357958 159.33,222.23 C157.268008,211.534559 156.552449,200.623129 157.2,189.75 L157.2,189.75 Z" id="Path" fill="#009900"></path>
            <path d="M268.05,381.82 C279.912771,387.758908 292.328708,392.521644 305.12,396.04 C303.871344,382.82309 301.329171,369.760541 297.53,357.04 C286.710587,355.771313 276.08983,353.168186 265.91,349.29 C267.970691,360.002488 268.689554,370.929875 268.05,381.82 L268.05,381.82 Z" id="Path" fill="#009900"></path>
            <path d="M140.81,244.3 C135.237129,234.94051 130.834206,224.932339 127.7,214.5 C114.514152,212.977284 101.211314,212.742844 87.98,213.8 C93.6816709,225.765582 100.526848,237.151885 108.42,247.8 C119.031965,245.307612 129.910569,244.132092 140.81,244.3 Z" id="Path" fill="#009900"></path>
            <path d="M284.41,327.23 C290.011733,336.572354 294.419473,346.580478 297.53,357.02 C310.71919,358.539715 324.024407,358.780836 337.26,357.74 C331.571649,345.740997 324.718767,334.329575 316.8,323.67 C306.191293,326.186905 295.312118,327.38264 284.41,327.23 Z" id="Path" fill="#009900"></path>
            <path d="M108.42,247.82 C95.5136847,250.922231 82.9408016,255.276186 70.88,260.82 C80.340629,270.128316 90.678681,278.500564 101.75,285.82 C110.852901,279.829117 120.664678,274.992089 130.96,271.42 C122.508363,264.506278 114.938304,256.580219 108.42,247.82 L108.42,247.82 Z" id="Path" fill="#009900"></path>
            <path d="M323.47,285.76 C314.374087,291.750661 304.568951,296.587727 294.28,300.16 C302.725988,307.039585 310.289917,314.93603 316.8,323.67 C329.709819,320.604278 342.286974,316.276799 354.35,310.75 C344.893101,301.436424 334.550865,293.066849 323.47,285.76 L323.47,285.76 Z" id="Path" fill="#009900"></path>
            <path d="M130.96,300.16 C120.662273,296.593665 110.849801,291.756294 101.75,285.76 C90.678681,293.079436 80.340629,301.451684 70.88,310.76 C82.941943,316.280864 95.5151891,320.60815 108.42,323.68 C114.9424,314.947041 122.512367,307.047945 130.96,300.16 L130.96,300.16 Z" id="Path" fill="#009900"></path>
            <path d="M294.28,271.36 C304.565495,274.940528 314.369639,279.777105 323.47,285.76 C334.551087,278.449683 344.893309,270.07677 354.35,260.76 C342.285793,255.231137 329.709096,250.897116 316.8,247.82 C310.290434,256.563325 302.726586,264.469763 294.28,271.36 L294.28,271.36 Z" id="Path" fill="#009900"></path>
            <path d="M108.42,323.67 C100.519045,334.33769 93.6735357,345.747989 87.98,357.74 C101.212277,358.78019 114.514114,358.539069 127.7,357.02 C130.828015,346.588549 135.231287,336.582946 140.81,327.23 C129.907882,327.38264 119.028707,326.186905 108.42,323.67 L108.42,323.67 Z" id="Path" fill="#009900"></path>
            <path d="M316.8,247.82 C324.708675,237.178473 331.561084,225.791282 337.26,213.82 C324.024407,212.779164 310.71919,213.020285 297.53,214.54 C294.417683,224.982031 290.010061,234.993244 284.41,244.34 C295.308615,244.165336 306.187233,245.334141 316.8,247.82 L316.8,247.82 Z" id="Path" fill="#009900"></path>
            <path d="M159.32,349.27 C149.14017,353.148186 138.519413,355.751313 127.7,357.02 C123.899257,369.739663 121.360338,382.802699 120.12,396.02 C132.911936,392.502438 145.33063,387.746628 157.2,381.82 C156.54875,370.924052 157.260929,359.989423 159.32,349.27 L159.32,349.27 Z" id="Path" fill="#009900"></path>
            <path d="M265.91,222.23 C276.0905,218.357958 286.71132,215.761533 297.53,214.5 C301.329171,201.779459 303.871344,188.71691 305.12,175.5 C292.329883,179.026248 279.914385,183.792165 268.05,189.73 C268.68955,200.610168 267.970677,211.527631 265.91,222.23 Z" id="Path" fill="#009900"></path>
            <path d="M157.2,381.82 C157.990381,395.064094 160.070221,408.199571 163.41,421.04 C174.212156,413.341769 184.242421,404.614267 193.36,394.98 C189.062019,384.971305 186.00918,374.472761 184.27,363.72 C176.017182,370.832878 166.926551,376.911209 157.2,381.82 L157.2,381.82 Z" id="Path" fill="#009900"></path>
            <path d="M268.05,189.73 C267.259668,176.489191 265.179823,163.357026 261.84,150.52 C251.031446,158.210113 241.000424,166.938275 231.89,176.58 C236.189273,186.581296 239.242189,197.073387 240.98,207.82 C249.23306,200.710227 258.323719,194.635235 268.05,189.73 Z" id="Path" fill="#009900"></path>
            <path d="M202.75,229.82 C204.588662,220.353899 207.920224,211.240205 212.62,202.82 C207.309053,193.305409 200.836102,184.487819 193.35,176.57 C189.046207,186.573141 185.99314,197.069107 184.26,207.82 C191.547511,214.129842 197.788342,221.555384 202.75,229.82 Z" id="Path" fill="#99CC00"></path>
            <path d="M222.49,341.71 C220.640767,351.173159 217.3098,360.285226 212.62,368.71 C217.940187,378.221706 224.412299,387.041512 231.89,394.97 C236.187981,384.961305 239.24082,374.462761 240.98,363.71 C233.695135,357.397551 227.454681,349.972458 222.49,341.71 L222.49,341.71 Z" id="Path" fill="#99CC00"></path>
            <path d="M159.32,222.23 C168.312898,225.669223 176.70884,230.501614 184.2,236.55 C182.678718,227.033748 182.678718,217.336252 184.2,207.82 C175.9722,200.71322 166.904644,194.641316 157.2,189.74 C156.548319,200.616034 157.260521,211.530872 159.32,222.23 L159.32,222.23 Z" id="Path" fill="#99CC00"></path>
            <path d="M265.91,349.27 C256.916088,345.841751 248.519491,341.015732 241.03,334.97 C242.52843,344.486033 242.511555,354.179242 240.98,363.69 C249.231968,370.812352 258.322537,376.900716 268.05,381.82 C268.689557,370.923237 267.970701,359.989235 265.91,349.27 L265.91,349.27 Z" id="Path" fill="#99CC00"></path>
            <path d="M169.11,249.24 C164.432478,240.817489 161.127668,231.703099 159.32,222.24 C149.1395,218.367958 138.51868,215.771533 127.7,214.51 C130.834206,224.942339 135.237129,234.95051 140.81,244.31 C150.444536,244.44803 159.996331,246.111999 169.11,249.24 L169.11,249.24 Z" id="Path" fill="#99CC00"></path>
            <path d="M256.13,322.28 C260.79846,330.705658 264.099553,339.819106 265.91,349.28 C276.08983,353.158186 286.710587,355.761313 297.53,357.03 C294.419473,346.590478 290.011733,336.582354 284.41,327.24 C274.780896,327.086846 265.236496,325.412864 256.13,322.28 L256.13,322.28 Z" id="Path" fill="#99CC00"></path>
            <path d="M130.96,271.36 C140.061784,268.203859 149.607797,266.516092 159.24,266.36 C151.960803,260.058351 145.73857,252.630834 140.81,244.36 C129.912206,244.178681 119.033586,245.340769 108.42,247.82 C114.939424,256.561426 122.509631,264.46749 130.96,271.36 L130.96,271.36 Z" id="Path" fill="#99CC00"></path>
            <path d="M294.28,300.16 C285.175705,303.306473 275.631247,304.993966 266,305.16 C273.268025,311.467186 279.482854,318.893924 284.41,327.16 C295.312118,327.31264 306.191293,326.116905 316.8,323.6 C310.283109,314.892607 302.71962,307.020129 294.28,300.16 Z" id="Path" fill="#99CC00"></path>
            <path d="M155.8,285.76 C146.808542,282.308091 138.423691,277.447308 130.96,271.36 C120.664678,274.932089 110.852901,279.769117 101.75,285.76 C110.849801,291.756294 120.662273,296.593665 130.96,300.16 C138.423691,294.072692 146.808542,289.211909 155.8,285.76 L155.8,285.76 Z" id="Path" fill="#99CC00"></path>
            <path d="M269.42,285.76 C278.418779,289.209389 286.810603,294.070301 294.28,300.16 C304.568951,296.587727 314.374087,291.750661 323.47,285.76 C314.369639,279.777105 304.565495,274.940528 294.28,271.36 C286.810603,277.449699 278.418779,282.310611 269.42,285.76 Z" id="Path" fill="#99CC00"></path>
            <path d="M140.81,327.23 C145.73857,318.959166 151.960803,311.531649 159.24,305.23 C149.607797,305.073908 140.061784,303.386141 130.96,300.23 C122.51023,307.111863 114.939944,315.007934 108.42,323.74 C119.032366,326.229123 129.910977,327.401286 140.81,327.23 L140.81,327.23 Z" id="Path" fill="#99CC00"></path>
            <path d="M284.41,244.3 C279.482854,252.566076 273.268025,259.992814 266,266.3 C275.631732,266.460995 285.176977,268.148627 294.28,271.3 C302.722899,264.428365 310.286594,256.542239 316.8,247.82 C306.188837,245.321084 295.310247,244.138847 284.41,244.3 Z" id="Path" fill="#99CC00"></path>
            <path d="M169.11,322.28 C160.000065,325.431325 150.448248,327.118925 140.81,327.28 C135.241596,336.620604 130.838785,346.60837 127.7,357.02 C138.519413,355.751313 149.14017,353.148186 159.32,349.27 C161.127699,339.810076 164.432537,330.698984 169.11,322.28 L169.11,322.28 Z" id="Path" fill="#99CC00"></path>
            <path d="M256.13,249.24 C265.236292,246.108877 274.781476,244.441508 284.41,244.3 C290.010061,234.953244 294.417683,224.942031 297.53,214.5 C286.71132,215.761533 276.0905,218.357958 265.91,222.23 C264.095025,231.692816 260.794214,240.80886 256.13,249.24 L256.13,249.24 Z" id="Path" fill="#99CC00"></path>
            <path d="M202.75,341.71 C197.785319,349.972458 191.544865,357.397551 184.26,363.71 C185.99918,374.462761 189.052019,384.961305 193.35,394.97 C200.827701,387.041512 207.299813,378.221706 212.62,368.71 C207.920224,360.289795 204.588662,351.176101 202.75,341.71 L202.75,341.71 Z" id="Path" fill="#99CC00"></path>
            <path d="M184.2,334.97 C176.708312,341.017887 168.30807,345.844061 159.31,349.27 C157.254276,359.989843 156.545457,370.924469 157.2,381.82 C166.926551,376.911209 176.017182,370.832878 184.27,363.72 C182.726778,354.200642 182.703151,344.49676 184.2,334.97 Z" id="Path" fill="#99CC00"></path>
            <path d="M222.49,229.82 C227.449173,221.553611 233.690315,214.127699 240.98,207.82 C239.242196,197.070158 236.189293,186.574756 231.89,176.57 C224.401666,184.485957 217.928501,193.303838 212.62,202.82 C217.318387,211.240842 220.649865,220.354308 222.49,229.82 Z" id="Path" fill="#99CC00"></path>
            <path d="M241.03,236.55 C248.52116,230.501614 256.917102,225.669223 265.91,222.23 C267.970677,211.527631 268.68955,200.610168 268.05,189.73 C258.323719,194.635235 249.23306,200.710227 240.98,207.82 C242.511609,217.334109 242.528484,227.030617 241.03,236.55 L241.03,236.55 Z" id="Path" fill="#99CC00"></path>
            <path d="M202.79,258.82 C198.04909,250.293567 191.742127,242.738102 184.2,236.55 C185.799451,246.163193 189.191684,255.390067 194.2,263.75 C186.845811,257.394708 178.366264,252.473178 169.2,249.24 C173.955982,257.739022 180.281142,265.258633 187.84,271.4 C178.699884,267.913944 168.981394,266.193527 159.2,266.33 C166.593553,272.698913 175.12287,277.614975 184.34,280.82 C174.596858,280.676715 164.91416,282.373053 155.8,285.82 C164.91568,289.261396 174.597315,290.957548 184.34,290.82 C175.131012,293.986688 166.60193,298.861904 159.2,305.19 C168.937799,305.310278 178.610691,303.590125 187.71,300.12 C180.151142,306.261367 173.825982,313.780978 169.07,322.28 C178.276743,319.072877 186.800636,314.168162 194.2,307.82 C189.191684,316.179933 185.799451,325.406807 184.2,335.02 C191.728012,328.847918 198.030487,321.317511 202.78,312.82 C200.960068,322.401008 200.960068,332.238992 202.78,341.82 C207.741137,333.439124 211.088841,324.20326 212.65,314.59 C214.216189,324.201951 217.563563,333.436905 222.52,341.82 C224.339932,332.238992 224.339932,322.401008 222.52,312.82 C227.27687,321.32109 233.581966,328.857359 241.11,335.04 C239.521232,325.423985 236.128283,316.195164 231.11,307.84 C238.501272,314.185707 247.009648,319.099472 256.2,322.33 C251.437842,313.835249 245.113593,306.316721 237.56,300.17 C246.659309,303.640125 256.332201,305.360278 266.07,305.24 C258.667403,298.906094 250.143716,294.015064 240.94,290.82 C250.676625,290.963163 260.352749,289.266788 269.46,285.82 C260.352749,282.373212 250.676625,280.676837 240.94,280.82 C250.137062,277.616179 258.651113,272.714664 266.04,266.37 C256.295766,266.250561 246.616478,267.970645 237.51,271.44 C245.092128,265.292882 251.434989,257.758826 256.2,249.24 C247.014345,252.475031 238.514854,257.399716 231.14,263.76 C236.149916,255.397228 239.542219,246.166772 241.14,236.55 C233.565761,242.735472 227.222204,250.290071 222.44,258.82 C224.259932,249.238992 224.259932,239.401008 222.44,229.82 C217.478863,238.200876 214.131159,247.43674 212.57,257.05 C211.030522,247.43853 207.699439,238.20173 202.75,229.82 C200.948275,239.40398 200.961843,249.241027 202.79,258.82 L202.79,258.82 Z" id="Path" fill="#FFFFFF"></path>
            <path d="M202.79,258.82 C200.980026,249.238058 200.980026,239.401942 202.79,229.82 C197.828342,221.555384 191.587511,214.129842 184.3,207.82 C182.779783,217.332982 182.779783,227.027018 184.3,236.54 C191.807676,242.739744 198.080366,250.298183 202.79,258.82 Z" id="Path" fill="#FFE600"></path>
            <path d="M222.44,312.75 C224.259932,322.331008 224.259932,332.168992 222.44,341.75 C227.404681,350.012458 233.645135,357.437551 240.93,363.75 C242.44499,354.236604 242.44499,344.543396 240.93,335.03 C233.427889,328.824681 227.15614,321.267376 222.44,312.75 L222.44,312.75 Z" id="Path" fill="#FFE600"></path>
            <path d="M184.2,236.55 C176.706636,230.49947 168.307053,225.666926 159.31,222.23 C161.117668,231.693099 164.422478,240.807489 169.1,249.23 C178.303475,252.452524 186.818314,257.37824 194.2,263.75 C189.191684,255.390067 185.799451,246.163193 184.2,236.55 Z" id="Path" fill="#FFE600"></path>
            <path d="M241.03,334.97 C248.519491,341.015732 256.916088,345.841751 265.91,349.27 C264.099553,339.809106 260.79846,330.695658 256.13,322.27 C246.951697,319.051583 238.453361,314.151305 231.07,307.82 C236.066874,316.163578 239.445889,325.374447 241.03,334.97 Z" id="Path" fill="#FFE600"></path>
            <path d="M187.75,271.4 C180.191142,265.258633 173.865982,257.739022 169.11,249.24 C159.996841,246.108761 150.445057,244.441418 140.81,244.3 C145.73857,252.570834 151.960803,259.998351 159.24,266.3 C168.979656,266.190016 178.652477,267.920335 187.75,271.4 Z" id="Path" fill="#FFE600"></path>
            <path d="M237.49,300.12 C245.043593,306.266721 251.367842,313.785249 256.13,322.28 C265.233023,325.431373 274.778268,327.119005 284.41,327.28 C279.482854,319.013924 273.268025,311.587186 266,305.28 C256.25655,305.370364 246.583691,303.619682 237.49,300.12 Z" id="Path" fill="#FFE600"></path>
            <path d="M184.34,280.82 C175.12287,277.614975 166.593553,272.698913 159.2,266.33 C149.567797,266.486092 140.021784,268.173859 130.92,271.33 C138.383691,277.417308 146.768542,282.278091 155.76,285.73 C164.89238,282.307846 174.589113,280.641962 184.34,280.82 L184.34,280.82 Z" id="Path" fill="#FFE600"></path>
            <path d="M240.9,290.73 C250.09614,293.940506 258.609589,298.845067 266,305.19 C275.631247,305.023966 285.175705,303.336473 294.28,300.19 C286.80855,294.110905 278.416838,289.260184 269.42,285.82 C260.306951,289.236563 250.630922,290.902387 240.9,290.73 L240.9,290.73 Z" id="Path" fill="#FFE600"></path>
            <path d="M155.8,285.76 C146.808542,289.211909 138.423691,294.072692 130.96,300.16 C140.061784,303.316141 149.607797,305.003908 159.24,305.16 C166.624883,298.809681 175.140058,293.907519 184.34,290.71 C174.600809,290.859479 164.920022,289.180436 155.8,285.76 Z" id="Path" fill="#FFE600"></path>
            <path d="M269.42,285.76 C278.418779,282.310611 286.810603,277.449699 294.28,271.36 C285.176977,268.208627 275.631732,266.520995 266,266.36 C258.611648,272.70784 250.097623,277.612733 240.9,280.82 C250.632835,280.657196 260.308925,282.333209 269.42,285.76 L269.42,285.76 Z" id="Path" fill="#FFE600"></path>
            <path d="M187.75,300.12 C178.636804,303.590211 168.950807,305.310281 159.2,305.19 C151.920803,311.491649 145.69857,318.919166 140.77,327.19 C150.408248,327.028925 159.960065,325.341325 169.07,322.19 C173.849153,313.721148 180.187253,306.232825 187.75,300.12 Z" id="Path" fill="#FFE600"></path>
            <path d="M237.47,271.4 C246.576478,267.930645 256.255766,266.210561 266,266.33 C273.268025,260.022814 279.482854,252.596076 284.41,244.33 C274.781476,244.471508 265.236292,246.138877 256.13,249.27 C251.362586,257.758347 245.031073,265.267264 237.47,271.4 L237.47,271.4 Z" id="Path" fill="#FFE600"></path>
            <path d="M202.75,341.71 C204.588662,351.176101 207.920224,360.289795 212.62,368.71 C217.3098,360.285226 220.640767,351.173159 222.49,341.71 C217.533563,333.326905 214.186189,324.091951 212.62,314.48 C211.058841,324.09326 207.711137,333.329124 202.75,341.71 Z" id="Path" fill="#FFE600"></path>
            <path d="M202.79,312.75 C198.038993,321.255129 191.733045,328.792417 184.2,334.97 C182.679783,344.482982 182.679783,354.177018 184.2,363.69 C191.484865,357.377551 197.725319,349.952458 202.69,341.69 C200.913058,332.12198 200.946978,322.305512 202.79,312.75 Z" id="Path" fill="#FFE600"></path>
            <path d="M169.11,322.28 C164.432478,330.702511 161.127668,339.816901 159.32,349.28 C168.314337,345.848225 176.710902,341.01885 184.2,334.97 C185.798093,325.372137 189.190627,316.161407 194.2,307.82 C186.811207,314.161927 178.301621,319.066216 169.11,322.28 L169.11,322.28 Z" id="Path" fill="#FFE600"></path>
            <path d="M222.49,229.82 C220.649865,220.354308 217.318387,211.240842 212.62,202.82 C207.920224,211.240205 204.588662,220.353899 202.75,229.82 C207.715003,238.199051 211.062979,247.435665 212.62,257.05 C214.181159,247.43674 217.528863,238.200876 222.49,229.82 L222.49,229.82 Z" id="Path" fill="#FFE600"></path>
            <path d="M222.44,258.82 C227.190761,250.311829 233.496655,242.771215 241.03,236.59 C242.52843,227.073967 242.511555,217.380758 240.98,207.87 C233.690315,214.177699 227.449173,221.603611 222.49,229.87 C224.288516,239.437789 224.271555,249.258481 222.44,258.82 L222.44,258.82 Z" id="Path" fill="#FFE600"></path>
            <path d="M256.13,249.24 C260.789863,240.810436 264.090449,231.698389 265.91,222.24 C256.917102,225.679223 248.52116,230.511614 241.03,236.56 C239.432219,246.176772 236.039916,255.407228 231.03,263.77 C238.414744,257.400115 246.928554,252.471603 256.13,249.24 L256.13,249.24 Z" id="Path" fill="#FFE600"></path>
            <rect id="Rectangle" x="0" y="0" width="425.2" height="500.53"></rect>
        </g>
    </g>
</svg>